<svg width="30" height="30" viewBox="0 0 30 30" fill="none" xmlns="http://www.w3.org/2000/svg">
<path d="M5.1625 23.4481C4.4739 19.096 5.31635 10.4361 14.1949 10.613C23.0735 10.7899 24.2023 19.1735 23.6568 23.3432C24.5738 24.4743 24.0561 26.8447 23.6826 27.8885C19.0348 27.8202 8.82892 27.7455 5.18828 27.9934C4.27138 26.8622 4.78905 24.4919 5.1625 23.4481Z" fill="white"/>
<path d="M5.1625 23.4481C4.4739 19.096 5.31635 10.4361 14.1949 10.613C23.0735 10.7899 24.2023 19.1735 23.6568 23.3432M5.1625 23.4481L23.6568 23.3432M5.1625 23.4481C4.78905 24.4919 4.27138 26.8622 5.18828 27.9934C8.82892 27.7455 19.0348 27.8202 23.6826 27.8885C24.0561 26.8447 24.5738 24.4743 23.6568 23.3432" stroke="#4B4B4B" stroke-width="2" stroke-linejoin="round"/>
<path d="M14.5859 6.39703L14.5607 1.93994" stroke="#4B4B4B" stroke-width="2" stroke-linecap="round" stroke-linejoin="round"/>
<path d="M21.9827 7.93037L25.1377 4.76074" stroke="#4B4B4B" stroke-width="2" stroke-linecap="round" stroke-linejoin="round"/>
<path d="M7.20708 8.0145L4.01636 4.88086" stroke="#4B4B4B" stroke-width="2" stroke-linecap="round" stroke-linejoin="round"/>
</svg>
