<svg width="30" height="30" fill="none" xmlns="http://www.w3.org/2000/svg"><g clip-path="url(#a)"><path d="m7.112 19.447-1.955-1.955-2.825-2.825 3.68-3.68c1.083-1.082 1.734-.864 2.168-.43.435.435-.43 1.735 1.74 3.04 2.171 1.305 4.551-1.51 3.464-3.463-1.088-1.954-1.738-1.305-2.823-1.957-.868-.522-.508-1.23-.22-1.519l4.113-4.112 4.562 4.562c.435.434 1.433.913 1.95-.647.648-1.95 1.948-2.382 2.382-2.381.434 0 1.735.003 2.386.654.652.652.87 1.303.655 2.387-.215 1.084-1.08 2.383-2.38 2.38-1.302-.001-1.517 1.083-1.3 1.3l.87.869 4.344 4.344-4.33 4.33c-.505.216-1.517.387-1.518-.654-.002-1.04-.582-1.88-.872-2.17-.579-.579-2.127-1.348-3.686.21-1.948 1.949-.427 3.47-.21 3.687.217.217.435.434 2.17.87 1.389.35.726 1.448.22 1.953l-3.896 3.896-3.476-3.476c-.724-1.013-2.303-2.65-2.82-1.089-.648 1.95-.863 2.6-2.164 3.032-1.04.345-2.313-.293-2.82-.655-.434-.435-1.174-1.607-.655-2.82.647-1.517 1.731-1.732 3.032-2.164 1.04-.345.576-1.155.214-1.517z" fill="#fff" stroke="#4B4B4B" stroke-width="2" stroke-linejoin="round"/></g><defs><clipPath id="a"><path fill="#fff" d="M0 0h30v30H0z"/></clipPath></defs></svg>