<svg width="30" height="30" viewBox="0 0 30 30" fill="none" xmlns="http://www.w3.org/2000/svg">
<path d="M23.9196 5.38837C24.9648 6.75387 28.4 11.2772 28.4 11.7435C28.4 12.2935 16.0412 27 15.4804 27C14.9196 27 2 12.2935 2 11.7435C2 11.2772 5.43519 6.75387 6.48042 5.38837C6.66882 5.14224 6.96011 5 7.27007 5H11.9755H18.4245H23.1299C23.4399 5 23.7312 5.14224 23.9196 5.38837Z" fill="white"/>
<path d="M28.4 11.7435C28.4 11.2772 24.9648 6.75387 23.9196 5.38837C23.7312 5.14224 23.4399 5 23.1299 5H18.4245M28.4 11.7435C28.4 12.2935 16.0412 27 15.4804 27M28.4 11.7435H20.8078M15.4804 27C14.9196 27 2 12.2935 2 11.7435M15.4804 27C15.4804 26.45 9.87255 11.7435 9.87255 11.7435M15.4804 27C15.4804 26.45 20.8078 11.7435 20.8078 11.7435M2 11.7435C2 11.2772 5.43519 6.75387 6.48042 5.38837C6.66882 5.14224 6.96011 5 7.27007 5H11.9755M2 11.7435H9.87255M11.9755 5L9.87255 11.7435M11.9755 5H18.4245M9.87255 11.7435H20.8078M20.8078 11.7435L18.4245 5" stroke="#4B4B4B" stroke-width="1.5" stroke-linecap="round"/>
<path d="M28.4 11.7435C28.4 11.2772 24.9648 6.75387 23.9196 5.38837C23.7312 5.14224 23.4399 5 23.1299 5H18.4245H11.9755H7.27007C6.96011 5 6.66882 5.14224 6.48042 5.38837C5.43519 6.75387 2 11.2772 2 11.7435C2 12.2935 14.9196 27 15.4804 27C16.0412 27 28.4 12.2935 28.4 11.7435Z" stroke="#4B4B4B" stroke-width="2" stroke-linecap="round"/>
</svg>
