<svg width="29" height="29" viewBox="0 0 29 29" fill="none" xmlns="http://www.w3.org/2000/svg">
<path d="M6.46607 18.4467L4.51094 16.4916L1.68685 13.6675L5.36669 9.98768C6.449 8.90537 7.09994 9.12338 7.53441 9.55786C7.96888 9.99233 7.10382 11.2919 9.27464 12.5968C11.4455 13.9018 13.8258 11.0871 12.738 9.13347C11.6503 7.17989 11.0009 7.82927 9.91548 7.17678C9.04716 6.65479 9.4073 5.94707 9.69592 5.65845L13.8087 1.54569L18.3707 6.10767C18.8051 6.54214 19.8035 7.02099 20.3211 5.46061C20.9682 3.51013 22.2685 3.07876 22.7022 3.07954C23.1359 3.08031 24.437 3.08264 25.0887 3.73435C25.7404 4.38606 25.9584 5.037 25.7435 6.12086C25.5286 7.20471 24.6636 8.50426 23.3625 8.50193C22.0614 8.4996 21.8465 9.58346 22.0637 9.8007L22.9326 10.6696L27.2774 15.0144L22.9482 19.3436C22.4426 19.5596 21.4309 19.7312 21.4291 18.6904C21.4272 17.6495 20.8474 16.81 20.5578 16.5203C19.9785 15.941 18.4302 15.172 16.8717 16.7306C14.9236 18.6787 16.4442 20.1994 16.6615 20.4166C16.8787 20.6338 17.096 20.8511 18.8315 21.2879C20.22 21.6373 19.5569 22.7348 19.0519 23.2399L15.1556 27.1362L11.6798 23.6604C10.9551 22.6472 9.37642 21.0108 8.85878 22.5711L8.85877 22.5712C8.21172 24.5216 7.99604 25.1718 6.69572 25.6031C5.65547 25.9482 4.38215 25.3099 3.87552 24.9476C3.44104 24.5131 2.70166 23.3408 3.21993 22.1273C3.86776 20.6106 4.95162 20.3957 6.25194 19.9643C7.29219 19.6192 6.82813 18.8088 6.46607 18.4467Z" fill="white" stroke="#4B4B4B" stroke-width="2" stroke-linejoin="round"/>
</svg>
