<svg width="152" height="92" fill="none" xmlns="http://www.w3.org/2000/svg"><path d="M31.297 59.147V91h32.151c7.214 0 5.219-3.084 4.516-5.893-.535-2.143-5.893-6.428-2.678-15.825 3.03-8.857 18.215-10.135 21.1 0 2.886 10.135-2.515 10.034-3.957 15.825C81.274 89.74 87.452 91 89.376 91h31.327V60.595c0-2.896 1.732-7.819 8.657-4.344 8.656 4.344 15.21 1.448 16.653 0C147.455 54.803 151 50.46 151 46.116c0-4.343-2.646-10.135-4.987-11.701-4.329-2.896-11.816-2.202-16.653 1.566-4.61 3.59-8.657.912-8.657-2.143V1.233H85.79c-2.404.965-4.205 3.764-.742 7.239 3.462 3.475 4.328 8.204 4.328 10.135 0 3.86-1.814 12.366-12.201 12.366-12.984 0-14.056-10.918-14.056-12.366 0-1.448 0-2.896 4.328-10.135 3.463-5.792-2.404-7.24-5.77-7.24h-30.38v23.166c.774 11.423 0 14.102-5.771 13.031-2.89-.536-7.456-7.686-18.633-3.215C1.536 36.357 1 42.786 1 46.116c0 2.896 1.443 9.267 7.213 11.583 7.214 2.896 11.542 0 17.313-2.896 4.616-2.316 5.77 1.93 5.77 4.344z" fill="#fff" stroke="#4B4B4B" stroke-opacity=".5" stroke-width="2" stroke-linejoin="round"/></svg>