<svg width="30" height="30" viewBox="0 0 30 30" fill="none" xmlns="http://www.w3.org/2000/svg">
<path d="M3.33923 21.9033C2.53165 18.0685 3.54362 10.4339 14.0521 10.5746C24.5606 10.7154 25.8822 18.103 25.2294 21.7792C26.3128 22.7746 25.696 24.8648 25.2522 25.7855C19.7511 25.7332 7.67147 25.6849 3.36195 25.9096C2.27864 24.9142 2.89542 22.824 3.33923 21.9033Z" fill="white"/>
<path d="M3.33923 21.9033C2.53165 18.0685 3.54362 10.4339 14.0521 10.5746C24.5606 10.7154 25.8822 18.103 25.2294 21.7792M3.33923 21.9033L25.2294 21.7792M3.33923 21.9033C2.89542 22.824 2.27864 24.9142 3.36195 25.9096C7.67147 25.6849 19.7511 25.7332 25.2522 25.7855C25.696 24.8648 26.3128 22.7746 25.2294 21.7792" stroke="#4B4B4B" stroke-width="2" stroke-linejoin="round"/>
<path d="M14.522 6.85777L14.4998 2.9292" stroke="#4B4B4B" stroke-width="2" stroke-linecap="round" stroke-linejoin="round"/>
<path d="M23.2742 8.19619L27.0139 5.39697" stroke="#4B4B4B" stroke-width="2" stroke-linecap="round" stroke-linejoin="round"/>
<path d="M5.7856 8.29568L2.0144 5.53906" stroke="#4B4B4B" stroke-width="2" stroke-linecap="round" stroke-linejoin="round"/>
</svg>
