<svg width="30" height="30" fill="none" xmlns="http://www.w3.org/2000/svg"><path d="M14.66 3c-5.927 0-7.513 6.097-7.935 9.11-.126.901.595 1.648 1.505 1.648 1.007 0 1.787-.913 1.8-1.92.026-2.27.708-5.742 4.63-5.742 3.865 0 4.622 3.374 4.694 5.644.033 1.061.859 2.018 1.92 2.018.988 0 1.76-.825 1.586-1.797C22.309 8.9 20.49 3 14.66 3z" fill="#fff" stroke="#4B4B4B" stroke-width="2" stroke-linecap="round"/><path d="M22.816 26.8c-5.649.342-9.771.191-15.892-.05A2.001 2.001 0 0 1 5 24.754V12.47c-.002-1.805 19.673-1.395 19.669 0-.003 1.062-.002 8.752 0 12.353a1.974 1.974 0 0 1-1.853 1.978z" fill="#fff" stroke="#4B4B4B" stroke-width="2" stroke-linecap="round"/><circle cx="15.228" cy="18.479" fill="#4B4B4B" r="2.36"/><path d="M15.228 19.265v3.776" stroke="#4B4B4B" stroke-width="2" stroke-linecap="round"/></svg>