<svg width="30" height="30" viewBox="0 0 30 30" fill="none" xmlns="http://www.w3.org/2000/svg">
<path d="M3.6646 22.9004C2.85702 19.0656 3.86899 10.431 14.3775 10.5717C24.8859 10.7125 27.2076 19.1001 26.5548 22.7763C27.6382 23.7717 27.0214 25.8619 26.5775 26.7826C21.0764 26.7303 7.99683 26.682 3.68732 26.9067C2.60401 25.9113 3.22079 23.8211 3.6646 22.9004Z" fill="white"/>
<path d="M3.6646 22.9004C2.85702 19.0656 3.86899 10.431 14.3775 10.5717C24.8859 10.7125 27.2076 19.1001 26.5548 22.7763M3.6646 22.9004L26.5548 22.7763M3.6646 22.9004C3.22079 23.8211 2.60401 25.9113 3.68732 26.9067C7.99683 26.682 21.0764 26.7303 26.5775 26.7826C27.0214 25.8619 27.6382 23.7717 26.5548 22.7763" stroke="#4B4B4B" stroke-width="2" stroke-linejoin="round"/>
<path d="M15.0223 6.85484L15 2.92627" stroke="#4B4B4B" stroke-width="2" stroke-linecap="round" stroke-linejoin="round"/>
<path d="M24.2742 8.19326L28.0139 5.39404" stroke="#4B4B4B" stroke-width="2" stroke-linecap="round" stroke-linejoin="round"/>
<path d="M5.7856 8.29275L2.0144 5.53613" stroke="#4B4B4B" stroke-width="2" stroke-linecap="round" stroke-linejoin="round"/>
</svg>
