<svg width="30" height="30" fill="none" xmlns="http://www.w3.org/2000/svg"><path d="M7 17.409v6.275h4.857c1.429 0 1.714-.57 1.714-1.14 0-.571-1.428-.857-.857-3.138.572-2.282 4-1.997 4.571 0 .572 1.996-.285 1.996-.571 3.137-.229.913.476 1.141.857 1.141H23v-5.99c0-.57.343-1.54 1.714-.855 1.714.855 2.857.285 3.143 0 .286-.286 1.143-1.141 1.143-1.997 0-.856-.286-1.426-1.143-1.997-.857-.57-2.286-.855-3.143 0-.857.856-1.714.286-1.714 0V6h-5.715c-.476.19-1.257.741-.571 1.426.686.685.857 1.616.857 1.997 0 .76-.514 2.281-2.571 2.281-2.572 0-2.572-1.996-2.572-2.281 0-.286 0-.57.857-1.997C13.972 6.286 12.81 6 12.144 6H7v4.563c.19 1.141.228 3.252-1.143 2.568-1.714-.856-2.286-1.141-3.429-.57-.914.456-1.333 1.71-1.428 2.281 0 .57.285 1.825 1.428 2.282 1.429.57 2.286 0 3.429-.57.914-.457 1.143.38 1.143.855z" fill="#fff" stroke="#4B4B4B" stroke-width="1.8"/></svg>