<svg width="30" height="30" fill="none" xmlns="http://www.w3.org/2000/svg"><path d="M3.665 22.9c-.808-3.834.204-12.469 10.712-12.328 10.509.14 12.83 8.528 12.178 12.204 1.083.996.466 3.086.023 4.007-5.502-.053-18.581-.101-22.89.124-1.084-.996-.467-3.086-.023-4.007z" fill="#fff"/><path d="M3.665 22.9c-.808-3.834.204-12.469 10.712-12.328 10.509.14 12.83 8.528 12.178 12.204m-22.89.124 22.89-.124m-22.89.124c-.444.921-1.061 3.011.022 4.007 4.31-.225 17.39-.177 22.89-.124.444-.921 1.061-3.011-.022-4.007" stroke="#4B4B4B" stroke-width="2.5" stroke-linejoin="round"/><path d="M15.022 6.855 15 2.926M24.274 8.193l3.74-2.799M5.786 8.293 2.014 5.536" stroke="#4B4B4B" stroke-width="2.5" stroke-linecap="round" stroke-linejoin="round"/></svg>