<svg width="50" height="50" fill="none" xmlns="http://www.w3.org/2000/svg"><g clip-path="url(#a)" fill="#fff" stroke="#4B4B4B" stroke-width="2"><circle cx="25" cy="25" r="24"/><path d="M37.691 14.324c-.343-1.38-14.244-.39-14.263-1.005-.02-.615 0-1.26 0-3.014C23.428 8.55 12 14.858 12 16.868s11.428 9.315 11.428 6.556c0-2.76-.02-1.665 0-2.605.02-.941 13.79.94 14.263-.66.475-1.602.344-4.455 0-5.835zM12.309 35.676c.343 1.38 14.244.39 14.263 1.005.02.615 0 1.26 0 3.014C26.572 41.45 38 35.142 38 33.132s-11.428-9.315-11.428-6.556c0 2.76.02 1.665 0 2.605-.02.941-13.79-.94-14.263.66-.475 1.602-.344 4.455 0 5.835z"/></g><defs><clipPath id="a"><path fill="#fff" d="M0 0h50v50H0z"/></clipPath></defs></svg>