<svg width="18" height="19" fill="none" xmlns="http://www.w3.org/2000/svg"><path fill-rule="evenodd" clip-rule="evenodd" d="M17.64 9.705c0-.639-.057-1.252-.164-1.841H9v3.481h4.844a4.14 4.14 0 0 1-1.796 2.716v2.259h2.908c1.702-1.567 2.684-3.875 2.684-6.615z" fill="#4285F4"/><path fill-rule="evenodd" clip-rule="evenodd" d="M9 18.5c2.43 0 4.467-.806 5.956-2.18l-2.908-2.259c-.806.54-1.837.86-3.048.86-2.344 0-4.328-1.584-5.036-3.711H.957v2.332A8.997 8.997 0 0 0 9 18.5z" fill="#34A853"/><path fill-rule="evenodd" clip-rule="evenodd" d="M3.964 11.21a5.41 5.41 0 0 1-.282-1.71c0-.593.102-1.17.282-1.71V5.458H.957A8.996 8.996 0 0 0 0 9.5c0 1.452.348 2.827.957 4.042l3.007-2.332z" fill="#FBBC05"/><path fill-rule="evenodd" clip-rule="evenodd" d="M9 4.08c1.321 0 2.508.454 3.44 1.345l2.582-2.58C13.463 1.391 11.426.5 9 .5A8.997 8.997 0 0 0 .957 5.458L3.964 7.79C4.672 5.663 6.656 4.08 9 4.08z" fill="#EA4335"/></svg>