<svg width="37" height="39" viewBox="0 0 37 39" fill="none" xmlns="http://www.w3.org/2000/svg">
<path d="M10.6354 3.459L12.3742 7.86784C12.5775 8.38328 12.9855 8.79129 13.5009 8.99458L17.9098 10.7334L13.5009 12.4722C12.9855 12.6755 12.5775 13.0835 12.3742 13.599L10.6354 18.0078L8.89656 13.599C8.69327 13.0835 8.28526 12.6755 7.76981 12.4722L3.36098 10.7334L7.76981 8.99458C8.28526 8.79129 8.69327 8.38328 8.89656 7.86783L10.6354 3.459Z" fill="white" stroke="#4B4B4B" stroke-width="2"/>
<path d="M22.6354 13.459L25.5056 20.7365C25.7089 21.2519 26.1169 21.6599 26.6323 21.8632L33.9098 24.7334L26.6323 27.6036C26.1169 27.8069 25.7089 28.2149 25.5056 28.7303L22.6354 36.0078L19.7652 28.7303C19.5619 28.2149 19.1539 27.8069 18.6384 27.6036L11.361 24.7334L18.6384 21.8632C19.1539 21.6599 19.5619 21.2519 19.7652 20.7365L22.6354 13.459Z" fill="white" stroke="#4B4B4B" stroke-width="2"/>
</svg>
