<svg width="50" height="59" viewBox="0 0 50 59" fill="none" xmlns="http://www.w3.org/2000/svg">
<rect x="1" y="9.71436" width="47.9999" height="47.9999" rx="4" fill="white" stroke="#4B4B4B" stroke-width="2"/>
<path d="M24.1749 23.5438C24.5721 22.9642 25.4274 22.9642 25.8246 23.5438L29.3148 28.6363C29.7049 29.2055 30.2793 29.6229 30.9412 29.818L36.863 31.5636C37.5369 31.7623 37.8012 32.5757 37.3728 33.1326L33.608 38.0256C33.1872 38.5725 32.9678 39.2478 32.9868 39.9375L33.1565 46.109C33.1758 46.8113 32.4839 47.3141 31.8218 47.0787L26.0049 45.0102C25.3548 44.779 24.6448 44.779 23.9946 45.0102L18.1777 47.0787C17.5157 47.3141 16.8237 46.8113 16.843 46.109L17.0128 39.9375C17.0317 39.2478 16.8123 38.5725 16.3915 38.0256L12.6267 33.1326C12.1983 32.5757 12.4626 31.7623 13.1365 31.5636L19.0584 29.818C19.7203 29.6229 20.2946 29.2055 20.6847 28.6363L24.1749 23.5438Z" fill="white" stroke="#4B4B4B" stroke-width="2" stroke-linejoin="round"/>
<path d="M23.7844 2.11563C23.8629 1.94803 23.9311 1.80885 23.988 1.69887C24.1813 1.69983 24.464 1.7294 24.8338 1.79751C25.6443 1.94678 26.6958 2.247 27.7506 2.61318C28.803 2.97854 29.8176 3.39521 30.553 3.763C30.8488 3.91096 31.0786 4.04072 31.2407 4.14613C31.2257 4.24343 31.2076 4.35584 31.1863 4.48242C31.1167 4.89618 31.016 5.44727 30.8889 6.08954C30.6345 7.37464 30.2772 9.01036 29.8577 10.6249C29.436 12.2476 28.9603 13.814 28.474 14.9775C28.229 15.5635 27.9994 16.003 27.7975 16.2879C27.6998 16.4257 27.6333 16.4926 27.6008 16.5219C27.2066 16.5616 26.5637 16.5358 25.7547 16.425C24.9061 16.3086 23.9469 16.109 23.0337 15.8478C22.1144 15.5848 21.2787 15.2699 20.6592 14.9356C20.3493 14.7685 20.1212 14.6111 19.9688 14.4734C19.8197 14.3387 19.7901 14.2654 19.7898 14.2655C19.7898 14.2655 19.7899 14.2659 19.7901 14.2665C19.7907 14.2685 19.7905 14.2665 19.79 14.2603C19.7872 14.2245 19.7729 14.047 19.8282 13.6495C19.886 13.2337 20.0004 12.6999 20.1636 12.0742C20.4889 10.8263 20.9861 9.2956 21.5295 7.77174C22.0717 6.25101 22.6535 4.75518 23.1428 3.58203C23.3877 2.99493 23.6068 2.49473 23.7844 2.11563Z" fill="white" stroke="#4B4B4B" stroke-width="2"/>
</svg>
