<svg xmlns="http://www.w3.org/2000/svg" width="30" height="30" fill="none"><circle cx="15" cy="15" r="11" stroke="#4B4B4B" stroke-width="2"/><mask id="a" width="9" height="16" x="10.461" y="6.846" fill="#000" maskUnits="userSpaceOnUse"><path fill="#fff" d="M10.461 6.846h9v16h-9z"/><path d="M11.072 11.944c-.09-.63-.108-1.296.108-1.908.27-.81.9-1.458 1.674-1.818 1.62-.756 3.456-.63 4.824.558 1.512 1.296 1.404 3.528.414 5.058 0 0-.018.018-.018.036-.396.558-.99.954-1.44 1.458-.522.558-.522 1.08-.612 1.782-.072.666-.27 1.242-1.026 1.224-.99-.036-.954-1.368-.846-2.07.144-.846.54-1.602 1.098-2.268.612-.702 1.314-1.17 1.44-2.178.126-.918-.594-1.944-1.566-1.998-.864-.036-2.07.558-2.016 1.53.036.594.432 1.17-.09 1.656-.846.828-1.818-.216-1.944-1.062m5.184 8.982c0 .342-.126.648-.396.936a1.18 1.18 0 0 1-.882.396c-.324 0-.612-.126-.864-.396-.252-.288-.378-.594-.378-.936 0-.378.126-.684.378-.936.252-.27.54-.414.864-.414s.63.144.882.414c.27.27.396.576.396.936"/></mask><path fill="#4B4B4B" d="M11.072 11.944c-.09-.63-.108-1.296.108-1.908.27-.81.9-1.458 1.674-1.818 1.62-.756 3.456-.63 4.824.558 1.512 1.296 1.404 3.528.414 5.058 0 0-.018.018-.018.036-.396.558-.99.954-1.44 1.458-.522.558-.522 1.08-.612 1.782-.072.666-.27 1.242-1.026 1.224-.99-.036-.954-1.368-.846-2.07.144-.846.54-1.602 1.098-2.268.612-.702 1.314-1.17 1.44-2.178.126-.918-.594-1.944-1.566-1.998-.864-.036-2.07.558-2.016 1.53.036.594.432 1.17-.09 1.656-.846.828-1.818-.216-1.944-1.062m5.184 8.982c0 .342-.126.648-.396.936a1.18 1.18 0 0 1-.882.396c-.324 0-.612-.126-.864-.396-.252-.288-.378-.594-.378-.936 0-.378.126-.684.378-.936.252-.27.54-.414.864-.414s.63.144.882.414c.27.27.396.576.396.936"/><path fill="#4B4B4B" d="m11.072 11.944-.198.028v.001zm.108-1.908.188.066.002-.003zm1.674-1.818.084.181zm4.824.558-.131.15v.002zm.414 5.058.141.141.015-.015.012-.018zm-.018.036.163.116.037-.053v-.063zm-1.44 1.458.146.136.003-.003zm-.612 1.782-.199-.026v.004zm-1.026 1.224-.008.2h.003zm-.846-2.07-.197-.034v.003zm1.098-2.268-.151-.132-.002.003zm1.44-2.178-.198-.027v.002zM15.122 9.82l.01-.2h-.002zm-2.016 1.53-.2.01v.002zm-.09 1.656-.136-.147-.004.004zm2.844 8.856-.146-.137zm-1.746 0-.15.132.004.004zm0-1.872.141.141.005-.005zm1.746 0-.146.136.004.005zm-4.59-8.075c-.088-.617-.102-1.245.098-1.813l-.377-.133c-.232.657-.209 1.36-.117 2.003zm.1-1.816c.25-.752.838-1.36 1.568-1.7l-.168-.363c-.818.38-1.49 1.068-1.78 1.936zm1.568-1.7c1.56-.728 3.309-.601 4.609.528l.262-.302c-1.436-1.248-3.36-1.373-5.04-.589zm4.61.529c1.41 1.208 1.332 3.32.376 4.797l.336.217c1.023-1.582 1.162-3.935-.452-5.318zm.544 4.906-.142-.142v.002h-.002l-.003.004-.029.036a.25.25 0 0 0-.042.136h.4a.16.16 0 0 1-.025.086l-.012.015-.002.002v.001h-.001v.001zm-.181-.08c-.185.26-.419.487-.672.717-.248.226-.52.461-.754.723l.298.267c.216-.242.466-.457.726-.694.255-.233.517-.484.728-.781zm-1.423 1.437c-.576.615-.577 1.213-.665 1.893l.397.051c.093-.724.091-1.17.56-1.67zm-.665 1.897c-.035.328-.1.596-.223.778-.112.164-.284.275-.6.268l-.009.4c.44.01.745-.158.94-.443.182-.268.253-.621.29-.96zm-.82 1.046a.59.59 0 0 1-.427-.178 1 1 0 0 1-.22-.454c-.093-.388-.061-.866-.008-1.208l-.396-.06c-.055.36-.096.898.014 1.36.056.233.153.462.32.638.172.18.405.29.703.302zm-.656-1.837c.137-.804.514-1.528 1.054-2.173l-.306-.257c-.577.688-.991 1.475-1.142 2.363zm1.052-2.17c.148-.17.302-.327.458-.487.154-.158.308-.32.448-.493.284-.35.512-.753.581-1.305l-.397-.05c-.057.458-.243.793-.494 1.104a7 7 0 0 1-.425.466c-.152.156-.316.322-.473.502zm1.487-2.282c.071-.518-.097-1.056-.41-1.47-.314-.416-.787-.724-1.343-.755l-.022.4c.416.023.788.255 1.046.595.258.342.387.776.333 1.175zM15.13 9.62a2.6 2.6 0 0 0-1.47.42c-.438.288-.786.739-.754 1.32l.4-.021c-.022-.39.206-.723.574-.965.368-.243.845-.37 1.233-.354zm-2.224 1.742c.01.167.045.328.08.474.035.152.068.282.086.41a.8.8 0 0 1-.01.327.6.6 0 0 1-.182.286l.272.293a1 1 0 0 0 .296-.474c.045-.167.041-.333.02-.487-.02-.152-.06-.307-.093-.446a2.5 2.5 0 0 1-.07-.407zm-.03 1.5c-.181.178-.354.242-.508.246a.8.8 0 0 1-.477-.168 1.66 1.66 0 0 1-.621-1.026l-.396.06c.07.473.373.995.783 1.29.208.15.454.25.72.244.271-.007.537-.123.779-.36zm3.18 8.064c0 .285-.103.543-.342.799l.292.273c.3-.32.45-.674.45-1.072zm-.342.8a.98.98 0 0 1-.736.332v.4c.38 0 .739-.15 1.028-.46zm-.736.332c-.264 0-.5-.1-.718-.333l-.292.273c.286.307.626.46 1.01.46zm-.714-.328c-.225-.257-.328-.518-.328-.804h-.4c0 .397.149.749.427 1.067zm-.328-.804c0-.327.106-.582.32-.795l-.284-.283q-.435.436-.436 1.078zm.324-.8c.223-.239.46-.35.718-.35v-.4c-.391 0-.73.176-1.01.477zm.718-.35c.26 0 .515.114.736.35l.292-.273c-.284-.304-.64-.477-1.028-.477zm.74.355c.234.234.338.49.338.795h.4c0-.415-.148-.771-.455-1.078z" mask="url(#a)"/></svg>