<svg width="40" height="40" fill="none" xmlns="http://www.w3.org/2000/svg"><g clip-path="url(#a)" fill="#fff" stroke="#4B4B4B" stroke-width="2"><path d="m9.754 7.726 1.739 4.408a2 2 0 0 0 1.126 1.127l4.409 1.738-4.409 1.739a2 2 0 0 0-1.126 1.126l-1.739 4.408-1.738-4.408a2 2 0 0 0-1.127-1.127L2.48 15l4.408-1.739a2 2 0 0 0 1.127-1.126l-.93-.367.93.367 1.738-4.408zm15.357 3.282 2.87 7.276a2 2 0 0 0 1.127 1.127l7.277 2.87-7.277 2.87a2 2 0 0 0-1.127 1.126l-2.87 7.277-2.87-7.277a2 2 0 0 0-1.126-1.126l-7.276-2.87 7.276-2.87a2 2 0 0 0 1.127-1.127l2.87-7.276z"/></g><defs><clipPath id="a"><path fill="#fff" d="M0 0h40v40H0z"/></clipPath></defs></svg>