<svg width="50" height="60" viewBox="0 0 50 60" fill="none" xmlns="http://www.w3.org/2000/svg">
<rect x="1" y="10.5718" width="47.9999" height="47.9999" rx="4" fill="white" stroke="#4B4B4B" stroke-width="2"/>
<path d="M19.1473 5.42624C19.1118 5.2446 19.0847 5.09202 19.0657 4.96963C19.2224 4.85632 19.4681 4.71341 19.8068 4.55018C20.5492 4.19248 21.5753 3.81442 22.643 3.48765C23.7083 3.16161 24.7733 2.89936 25.584 2.76239C25.9101 2.70728 26.1722 2.67647 26.3653 2.6659C26.4106 2.7533 26.4623 2.85476 26.5198 2.96951C26.7078 3.34461 26.9517 3.84898 27.228 4.44253C27.7809 5.63017 28.4576 7.16159 29.0716 8.71266C29.6886 10.2716 30.2289 11.8169 30.5228 13.0432C30.6708 13.6609 30.7447 14.1512 30.7498 14.5004C30.7522 14.6692 30.738 14.7625 30.7291 14.8053C30.4343 15.07 29.9 15.4286 29.1814 15.8164C28.4276 16.2232 27.5354 16.628 26.644 16.956C25.7467 17.2861 24.8861 17.525 24.1887 17.6207C23.8399 17.6685 23.5628 17.6761 23.3585 17.6548C23.1587 17.634 23.0916 17.5923 23.0914 17.5926C23.0914 17.5927 23.0916 17.5929 23.0922 17.5933C23.0938 17.5945 23.0926 17.593 23.0885 17.5883C23.0651 17.5611 22.9488 17.4262 22.7589 17.0726C22.5603 16.7028 22.3377 16.2043 22.1002 15.6029C21.6265 14.4034 21.1247 12.8742 20.6642 11.3233C20.2047 9.77556 19.7917 8.2246 19.4945 6.98874C19.3458 6.37025 19.2276 5.83709 19.1473 5.42624Z" fill="white" stroke="#4B4B4B" stroke-width="2"/>
<path d="M17 27H40" stroke="#4B4B4B" stroke-width="2" stroke-linecap="round" stroke-linejoin="round"/>
<circle cx="11" cy="27" r="1" fill="#4B4B4B" stroke="#4B4B4B" stroke-width="2"/>
<path d="M17 37H40" stroke="#4B4B4B" stroke-width="2" stroke-linecap="round" stroke-linejoin="round"/>
<circle cx="11" cy="37" r="1" fill="#4B4B4B" stroke="#4B4B4B" stroke-width="2"/>
<path d="M17 47H40" stroke="#4B4B4B" stroke-width="2" stroke-linecap="round" stroke-linejoin="round"/>
<circle cx="11" cy="47" r="1" fill="#4B4B4B" stroke="#4B4B4B" stroke-width="2"/>
</svg>
