<svg width="60" height="40" fill="none" xmlns="http://www.w3.org/2000/svg"><g clip-path="url(#a)" stroke="#4B4B4B" stroke-width="1.5"><rect x="4.75" y=".75" width="44.739" height="31.792" rx="6.25" fill="#fff"/><path d="M6.569 3.425c4.893 4.86 16.523 17.982 19.572 17.982 3.05 0 17.126-13.122 21.53-17.982M6 29.5l13.721-13.778M47.67 29.114 33.114 16.269"/><path d="m52.783 23.7-.65-2.422-.937-3.5L46.636 19c-1.34.36-1.464.97-1.32 1.508.144.538 1.557.448 1.598 2.745.04 2.297-3.25 2.89-4.291 1.15-1.041-1.74-.237-1.956-.257-3.104-.016-.92-.736-.957-1.093-.861l-5.096 1.365 1.515 5.652c.144.539.067 1.54-1.393 1.239-1.826-.376-2.754.45-2.95.79-.196.341-.785 1.364-.568 2.172.216.808.629 1.274 1.577 1.597.95.322 2.362.232 2.95-.79.589-1.024 1.538-.701 1.61-.432l.288 1.077 1.443 5.383 5.364-1.438c.398-.299.992-1.015.175-1.489-.816-.474-1.213-1.31-1.309-1.669-.192-.717-.094-2.282 1.837-2.8 2.414-.646 2.918 1.238 2.99 1.507.073.27.145.538-.3 2.1-.354 1.249.808 1.226 1.434 1.058l4.828-1.293-1.154-4.307c-.467-1.029-1.037-3.011.423-2.71 1.826.376 2.435.502 3.363-.324.743-.66.819-1.95.764-2.513-.144-.538-.73-1.65-1.918-1.794-1.485-.179-2.145.575-3.074 1.401-.743.66-1.169-.071-1.29-.52z" fill="#fff"/></g><defs><clipPath id="a"><path fill="#fff" d="M0 0h60v40H0z"/></clipPath></defs></svg>