<svg width="40" height="40" fill="none" xmlns="http://www.w3.org/2000/svg"><path d="M19.994 29.502c-1.418 1.096-15.032 1.119-15.981 0-.95-1.118-1.892-6.41.47-9.04 1.653-1.838 4.453-2.369 4.453-2.369S4.77 16.41 4.77 12.258C4.77 7.903 7.42 5 11.965 5c4.544 0 6.816 2.54 6.816 7.258s-4.165 5.835-4.165 5.835 1.832.383 3.96 2.37c2.127 1.986 2.837 7.943 1.418 9.04z" fill="#fff" stroke="#4B4B4B" stroke-width="2" stroke-linecap="round" stroke-linejoin="round"/><path d="M37.017 29.502c-1.418 1.096-15.032 1.119-15.981 0-.95-1.118-1.892-6.41.47-9.04 1.652-1.838 4.453-2.369 4.453-2.369s-4.166-1.684-4.166-5.835c0-4.355 2.65-7.258 7.195-7.258 4.544 0 6.816 2.54 6.816 7.258s-4.166 5.835-4.166 5.835 1.833.383 3.96 2.37c2.128 1.986 2.838 7.943 1.42 9.04z" fill="#fff" stroke="#4B4B4B" stroke-width="2" stroke-linecap="round" stroke-linejoin="round"/><path d="M28.506 33.757c-1.419 1.096-15.032 1.118-15.982 0-.95-1.118-1.892-6.41.47-9.04 1.653-1.838 4.453-2.369 4.453-2.369s-4.165-1.684-4.165-5.835c0-4.355 2.65-7.258 7.194-7.258 4.544 0 6.816 2.54 6.816 7.258s-4.165 5.835-4.165 5.835 1.832.383 3.96 2.37c2.128 1.986 2.837 7.943 1.419 9.039z" fill="#fff" stroke="#4B4B4B" stroke-width="2" stroke-linecap="round" stroke-linejoin="round"/></svg>