<svg width="50" height="59" viewBox="0 0 50 59" fill="none" xmlns="http://www.w3.org/2000/svg">
<rect x="1" y="9.14355" width="47.9999" height="47.9999" rx="4" fill="white" stroke="#4B4B4B" stroke-width="2"/>
<rect x="12.9998" y="23.5718" width="23" height="23" rx="1" fill="white" stroke="#4B4B4B" stroke-width="2"/>
<rect x="12.9998" y="23.5718" width="23" height="7.99999" rx="1" fill="white" stroke="#4B4B4B" stroke-width="2"/>
<rect x="16.9999" y="21.5728" width="3.36841" height="5.99999" rx="1" fill="white" stroke="#4B4B4B" stroke-width="2"/>
<rect x="28.6312" y="21.5728" width="3.36841" height="5.99999" rx="1" fill="white" stroke="#4B4B4B" stroke-width="2"/>
<path d="M23.0379 2.11612C23.1164 1.94852 23.1846 1.80934 23.2415 1.69936C23.4349 1.70032 23.7175 1.72989 24.0874 1.798C24.8978 1.94727 25.9493 2.24749 27.0041 2.61367C28.0566 2.97903 29.0711 3.3957 29.8065 3.76348C30.1023 3.91145 30.3321 4.04121 30.4942 4.14662C30.4793 4.24392 30.4611 4.35633 30.4398 4.48291C30.3703 4.89666 30.2695 5.44776 30.1424 6.09003C29.888 7.37513 29.5308 9.01084 29.1112 10.6254C28.6896 12.2481 28.2138 13.8145 27.7275 14.978C27.4826 15.564 27.253 16.0035 27.051 16.2884C26.9533 16.4262 26.8868 16.4931 26.8544 16.5224C26.4602 16.5621 25.8172 16.5363 25.0082 16.4254C24.1596 16.3091 23.2004 16.1095 22.2873 15.8483C21.368 15.5853 20.5322 15.2704 19.9127 14.9361C19.6029 14.7689 19.3747 14.6116 19.2223 14.4739C19.0732 14.3391 19.0437 14.2659 19.0433 14.266C19.0433 14.266 19.0434 14.2664 19.0436 14.267C19.0442 14.269 19.0441 14.267 19.0436 14.2608C19.0407 14.225 19.0265 14.0475 19.0817 13.6499C19.1396 13.2342 19.254 12.7004 19.4171 12.0747C19.7425 10.8268 20.2396 9.29609 20.783 7.77223C21.3253 6.2515 21.907 4.75567 22.3963 3.58252C22.6412 2.99542 22.8604 2.49522 23.0379 2.11612Z" fill="white" stroke="#4B4B4B" stroke-width="2"/>
</svg>
