<svg width="37" height="39" viewBox="0 0 37 39" fill="none" xmlns="http://www.w3.org/2000/svg">
<path d="M11.6354 4.57971L12.8535 9.104C13.0389 9.79228 13.5765 10.3299 14.2648 10.5152L18.7891 11.7334L14.2648 12.9516C13.5765 13.1369 13.0389 13.6745 12.8535 14.3628L11.6354 18.8871L10.4172 14.3628C10.2319 13.6745 9.69426 13.1369 9.00598 12.9516L4.48169 11.7334L9.00598 10.5152C9.69426 10.3299 10.2319 9.79229 10.4172 9.104L11.6354 4.57971Z" fill="white" stroke="#4B4B4B" stroke-width="2"/>
<path d="M22.6354 14.5797L24.4899 21.4676C24.6752 22.1559 25.2129 22.6935 25.9012 22.8788L32.7891 24.7334L25.9012 26.588C25.2129 26.7733 24.6752 27.3109 24.4899 27.9992L22.6354 34.8871L20.7808 27.9992C20.5955 27.3109 20.0579 26.7733 19.3696 26.588L12.4817 24.7334L19.3696 22.8788C20.0579 22.6935 20.5955 22.1559 20.7808 21.4676L22.6354 14.5797Z" fill="white" stroke="#4B4B4B" stroke-width="2"/>
</svg>
