<svg width="28" height="28" viewBox="0 0 28 28" fill="none" xmlns="http://www.w3.org/2000/svg">
<path d="M19.0142 6.00214L19.4572 5.1056L19.0142 6.00215C19.6474 6.31498 20.3805 6.34476 21.0353 6.09031C21.7582 5.80937 22.9374 5.3574 23.7239 5.08679C23.7297 5.08478 23.7342 5.0836 23.7374 5.08291C23.7468 5.08935 23.768 5.10719 23.793 5.14913L26.4239 9.56861C26.5584 9.79453 26.495 10.086 26.2787 10.2356L24.2939 11.6085C23.6189 12.0753 23.2161 12.8438 23.2161 13.6645V14.0213C23.2161 14.7859 23.566 15.5084 24.1657 15.9825L26.3489 17.7083C26.5456 17.8638 26.5967 18.1409 26.4684 18.3563L23.9893 22.5208C23.8669 22.7265 23.6159 22.8166 23.3906 22.7356L20.9921 21.8738C20.3531 21.6442 19.6481 21.6844 19.0394 21.9852L18.7847 22.111C18.0653 22.4664 17.5603 23.1454 17.4269 23.9366L17.0085 26.4168C16.9679 26.6575 16.7595 26.8337 16.5155 26.8337H11.4843C11.2402 26.8337 11.0318 26.6575 10.9912 26.4168L10.5729 23.9365C10.4395 23.1454 9.93439 22.4663 9.21505 22.111L8.96037 21.9851C8.3516 21.6844 7.64668 21.6442 7.00767 21.8738L4.60915 22.7356C4.3839 22.8165 4.13288 22.7265 4.01045 22.5208L1.54063 18.3719C1.41105 18.1543 1.46473 17.8741 1.66558 17.7197L3.42871 16.3647C4.04442 15.8915 4.40528 15.159 4.40528 14.3825V13.6172C4.40528 12.8406 4.04442 12.1082 3.42871 11.6349L1.66558 10.2799C1.46473 10.1255 1.41105 9.84536 1.54063 9.6277L4.20675 5.14909C4.23171 5.10716 4.25299 5.08931 4.26239 5.08287C4.26558 5.08356 4.27005 5.08474 4.27589 5.08675C5.00736 5.33843 6.0796 5.74742 6.80928 6.03008C7.61025 6.34037 8.51687 6.22192 9.21077 5.70765L9.57968 5.43424C10.0885 5.05715 10.4352 4.501 10.5498 3.87814L10.9735 1.57553C11.0172 1.33827 11.224 1.16602 11.4653 1.16602H16.5345C16.7772 1.16602 16.9804 1.33806 17.0222 1.5708C17.1541 2.30614 17.3155 3.22085 17.425 3.89208C17.5649 4.74974 18.1106 5.55568 18.933 5.96204L19.0142 6.00214Z" fill="#D9D9D9" stroke="#4B4B4B" stroke-width="2"/>
<circle cx="13.9999" cy="13.9995" r="3" fill="white" stroke="#4B4B4B" stroke-width="2"/>
</svg>
