<svg width="30" height="29" viewBox="0 0 30 29" fill="none" xmlns="http://www.w3.org/2000/svg">
<path d="M1.07761 14.856C-0.193736 14.6302 14.576 1.7334 14.576 1.7334C15.0955 1.7334 29.5557 14.5684 28.0301 14.856C26.5045 15.1436 23.8147 14.6973 23.3877 14.856C22.9606 15.0147 24.3277 26.4123 23.3877 26.9669C22.4476 27.5215 18.8139 27.6888 18.3897 26.9669C17.9656 26.245 19.0948 17.6955 14.576 17.4768C10.6195 17.2854 12.4518 26.6705 11.6035 26.9669C10.7552 27.2633 6.36856 26.9669 6.36856 26.9669C5.66537 26.7102 6.16298 15.3385 5.8491 14.856C5.53522 14.3735 2.34895 15.0818 1.07761 14.856Z" fill="white" stroke="#4B4B4B" stroke-width="2"/>
</svg>
