<svg width="38" height="33" viewBox="0 0 38 33" fill="none" xmlns="http://www.w3.org/2000/svg">
<path d="M18.8728 26.238C17.4542 27.3338 3.83934 27.3565 2.88975 26.238C1.94015 25.1195 0.997797 19.8276 3.36032 17.1977C5.01272 15.3583 7.81299 14.8281 7.81299 14.8281C7.81299 14.8281 3.64716 13.1432 3.64716 8.99212C3.64716 4.63689 6.29803 1.7334 10.8425 1.7334C15.387 1.7334 17.6592 4.27395 17.6592 8.99212C17.6592 13.7103 13.4935 14.8281 13.4935 14.8281C13.4935 14.8281 15.3261 15.2112 17.4541 17.1977C19.582 19.1843 20.2914 25.1422 18.8728 26.238Z" fill="white" stroke="#4B4B4B" stroke-width="2" stroke-linecap="round" stroke-linejoin="round"/>
<path d="M35.8974 26.238C34.4789 27.3338 20.864 27.3565 19.9144 26.238C18.9648 25.1195 18.0225 19.8276 20.385 17.1977C22.0374 15.3583 24.8376 14.8281 24.8376 14.8281C24.8376 14.8281 20.6718 13.1432 20.6718 8.99212C20.6718 4.63689 23.3227 1.7334 27.8672 1.7334C32.4117 1.7334 34.6839 4.27395 34.6839 8.99212C34.6839 13.7103 30.5181 14.8281 30.5181 14.8281C30.5181 14.8281 32.3508 15.2112 34.4787 17.1977C36.6067 19.1843 37.316 25.1422 35.8974 26.238Z" fill="white" stroke="#4B4B4B" stroke-width="2" stroke-linecap="round" stroke-linejoin="round"/>
<path d="M27.385 30.4939C25.9664 31.5897 12.3515 31.6123 11.402 30.4939C10.4524 29.3754 9.51 24.0835 11.8725 21.4536C13.5249 19.6142 16.3252 19.0839 16.3252 19.0839C16.3252 19.0839 12.1594 17.3991 12.1594 13.248C12.1594 8.89275 14.8102 5.98926 19.3547 5.98926C23.8992 5.98926 26.1714 8.52981 26.1714 13.248C26.1714 17.9662 22.0057 19.0839 22.0057 19.0839C22.0057 19.0839 23.8383 19.467 25.9663 21.4536C28.0942 23.4401 28.8036 29.398 27.385 30.4939Z" fill="white" stroke="#4B4B4B" stroke-width="2" stroke-linecap="round" stroke-linejoin="round"/>
</svg>
