<svg width="50" height="59" viewBox="0 0 50 59" fill="none" xmlns="http://www.w3.org/2000/svg">
<rect x="1" y="9.28613" width="47.9999" height="47.9999" rx="4" fill="white" stroke="#4B4B4B" stroke-width="2"/>
<path d="M19.2288 42.9191L14.8388 44.9363L19.6822 30.2922L25.8513 32.8278L21.1389 47.0761L19.2288 42.9191Z" fill="white"/>
<path d="M19.8131 29.8964L19.6822 30.2922M19.6822 30.2922L14.8388 44.9363L19.2288 42.9191L21.1389 47.0761L25.8513 32.8278L19.6822 30.2922Z" stroke="#4B4B4B" stroke-width="2" stroke-linecap="round" stroke-linejoin="round"/>
<path d="M30.0893 43.3981L34.4794 45.4153L29.636 30.7712L23.4668 33.3068L28.1793 47.5551L30.0893 43.3981Z" fill="white"/>
<path d="M29.5051 30.3754L29.636 30.7712M29.636 30.7712L34.4794 45.4153L30.0893 43.3981L28.1793 47.5551L23.4668 33.3068L29.636 30.7712Z" stroke="#4B4B4B" stroke-width="2" stroke-linecap="round" stroke-linejoin="round"/>
<path d="M32.9416 30.8366C32.9416 35.4006 29.2418 39.1005 24.6778 39.1005C20.1138 39.1005 16.4139 35.4006 16.4139 30.8366C16.4139 26.2726 20.1138 22.5728 24.6778 22.5728C29.2418 22.5728 32.9416 26.2726 32.9416 30.8366Z" fill="white" stroke="#4B4B4B" stroke-width="2"/>
<path d="M19.8938 4.62746C19.8583 4.44582 19.8312 4.29323 19.8123 4.17084C19.969 4.05754 20.2146 3.91463 20.5534 3.75142C21.2958 3.39373 22.3219 3.01569 23.3896 2.68895C24.4549 2.36294 25.5199 2.10071 26.3306 1.96376C26.6568 1.90866 26.9188 1.87785 27.1119 1.86729C27.1572 1.95469 27.2089 2.05615 27.2664 2.1709C27.4544 2.54601 27.6982 3.05038 27.9746 3.64394C28.5274 4.8316 29.2041 6.36303 29.8181 7.91411C30.4351 9.47302 30.9753 11.0184 31.2691 12.2447C31.4171 12.8624 31.4911 13.3527 31.4961 13.7019C31.4985 13.8707 31.4844 13.964 31.4754 14.0068C31.1806 14.2715 30.6463 14.63 29.9277 15.0178C29.1739 15.4247 28.2817 15.8294 27.3903 16.1573C26.4929 16.4875 25.6324 16.7263 24.935 16.822C24.5862 16.8698 24.3091 16.8774 24.1048 16.8561C23.9049 16.8353 23.8378 16.7936 23.8376 16.7939C23.8376 16.794 23.8379 16.7942 23.8385 16.7946C23.8401 16.7958 23.8388 16.7943 23.8348 16.7896C23.8113 16.7624 23.6951 16.6275 23.5052 16.2739C23.3065 15.9041 23.084 15.4056 22.8465 14.8042C22.3728 13.6046 21.8711 12.0755 21.4106 10.5245C20.9511 8.9768 20.5382 7.42583 20.2411 6.18997C20.0923 5.57148 19.9742 5.03831 19.8938 4.62746Z" fill="white" stroke="#4B4B4B" stroke-width="2"/>
</svg>
