<svg width="50" height="59" viewBox="0 0 50 59" fill="none" xmlns="http://www.w3.org/2000/svg">
<rect x="1.00024" y="10.0005" width="47.9999" height="47.9999" rx="4" fill="white" stroke="#4B4B4B" stroke-width="2"/>
<path d="M31.0895 45.1125L35.4796 47.1296L30.6362 32.4855L24.467 35.0212L29.1795 49.2695L31.0895 45.1125Z" fill="white"/>
<path d="M30.5053 32.0897L30.6362 32.4855M30.6362 32.4855L35.4796 47.1296L31.0895 45.1125L29.1795 49.2695L24.467 35.0212L30.6362 32.4855Z" stroke="#4B4B4B" stroke-width="2" stroke-linecap="round" stroke-linejoin="round"/>
<path d="M19.1117 45.1125L14.7217 47.1296L19.5651 32.4855L25.7343 35.0212L21.0218 49.2695L19.1117 45.1125Z" fill="white"/>
<path d="M19.696 32.0897L19.5651 32.4855M19.5651 32.4855L14.7217 47.1296L19.1117 45.1125L21.0218 49.2695L25.7343 35.0212L19.5651 32.4855Z" stroke="#4B4B4B" stroke-width="2" stroke-linecap="round" stroke-linejoin="round"/>
<path d="M32.9419 31.551C32.9419 36.115 29.242 39.8148 24.678 39.8148C20.114 39.8148 16.4142 36.115 16.4142 31.551C16.4142 26.987 20.114 23.2871 24.678 23.2871C29.242 23.2871 32.9419 26.987 32.9419 31.551Z" fill="white" stroke="#4B4B4B" stroke-width="2"/>
<path d="M19.8941 5.34181C19.8586 5.16018 19.8315 5.00759 19.8126 4.8852C19.9692 4.77189 20.2149 4.62899 20.5536 4.46577C21.2961 4.10808 22.3221 3.73005 23.3898 3.4033C24.4551 3.07729 25.5201 2.81507 26.3308 2.67812C26.657 2.62302 26.9191 2.59221 27.1122 2.58165C27.1575 2.66904 27.2092 2.77051 27.2667 2.88526C27.4546 3.26036 27.6985 3.76473 27.9748 4.3583C28.5277 5.54595 29.2044 7.07738 29.8183 8.62846C30.4353 10.1874 30.9755 11.7328 31.2694 12.9591C31.4174 13.5768 31.4913 14.067 31.4963 14.4162C31.4988 14.5851 31.4846 14.6784 31.4757 14.7212C31.1808 14.9859 30.6465 15.3444 29.928 15.7322C29.1742 16.139 28.282 16.5438 27.3906 16.8717C26.4932 17.2018 25.6326 17.4407 24.9352 17.5363C24.5864 17.5842 24.3093 17.5918 24.105 17.5705C23.9052 17.5497 23.8381 17.508 23.8379 17.5083C23.8379 17.5083 23.8381 17.5085 23.8387 17.5089C23.8403 17.5101 23.8391 17.5087 23.835 17.5039C23.8116 17.4768 23.6954 17.3419 23.5054 16.9882C23.3068 16.6184 23.0842 16.12 22.8467 15.5186C22.3731 14.319 21.8713 12.7898 21.4109 11.2389C20.9514 9.69116 20.5385 8.14019 20.2413 6.90432C20.0926 6.28583 19.9744 5.75266 19.8941 5.34181Z" fill="white" stroke="#4B4B4B" stroke-width="2"/>
</svg>
