<svg width="50" height="59" viewBox="0 0 50 59" fill="none" xmlns="http://www.w3.org/2000/svg">
<rect x="1.00012" y="9.71484" width="47.9999" height="47.9999" rx="4" fill="white" stroke="#4B4B4B" stroke-width="2"/>
<path d="M24.175 23.5443C24.5722 22.9647 25.4275 22.9647 25.8248 23.5443L29.3149 28.6368C29.705 29.206 30.2794 29.6233 30.9413 29.8185L36.8631 31.5641C37.5371 31.7628 37.8014 32.5762 37.3729 33.1331L33.6081 38.0261C33.1873 38.573 32.9679 39.2482 32.9869 39.938L33.1566 46.1095C33.1759 46.8118 32.484 47.3146 31.822 47.0792L26.005 45.0106C25.3549 44.7795 24.6449 44.7795 23.9947 45.0107L18.1778 47.0792C17.5158 47.3146 16.8238 46.8118 16.8431 46.1095L17.0129 39.938C17.0318 39.2482 16.8125 38.573 16.3917 38.0261L12.6269 33.1331C12.1984 32.5762 12.4627 31.7628 13.1367 31.5641L19.0585 29.8185C19.7204 29.6233 20.2948 29.206 20.6849 28.6368L24.175 23.5443Z" fill="white" stroke="#4B4B4B" stroke-width="2" stroke-linejoin="round"/>
<path d="M23.7845 2.11612C23.863 1.94852 23.9312 1.80934 23.9881 1.69936C24.1815 1.70032 24.4641 1.72989 24.8339 1.798C25.6444 1.94727 26.6959 2.24749 27.7507 2.61367C28.8032 2.97903 29.8177 3.3957 30.5531 3.76348C30.8489 3.91145 31.0787 4.04121 31.2408 4.14662C31.2258 4.24392 31.2077 4.35633 31.1864 4.48291C31.1169 4.89666 31.0161 5.44776 30.889 6.09002C30.6346 7.37513 30.2773 9.01084 29.8578 10.6254C29.4361 12.2481 28.9604 13.8145 28.4741 14.978C28.2292 15.564 27.9996 16.0035 27.7976 16.2884C27.6999 16.4262 27.6334 16.4931 27.601 16.5224C27.2068 16.5621 26.5638 16.5363 25.7548 16.4254C24.9062 16.3091 23.947 16.1095 23.0339 15.8483C22.1146 15.5853 21.2788 15.2704 20.6593 14.9361C20.3495 14.7689 20.1213 14.6116 19.9689 14.4739C19.8198 14.3391 19.7902 14.2659 19.7899 14.266C19.7899 14.266 19.79 14.2664 19.7902 14.267C19.7908 14.269 19.7906 14.267 19.7901 14.2608C19.7873 14.225 19.773 14.0475 19.8283 13.6499C19.8862 13.2342 20.0006 12.7004 20.1637 12.0747C20.4891 10.8268 20.9862 9.29609 21.5296 7.77223C22.0718 6.2515 22.6536 4.75567 23.1429 3.58252C23.3878 2.99542 23.6069 2.49522 23.7845 2.11612Z" fill="white" stroke="#4B4B4B" stroke-width="2"/>
</svg>
