<svg width="30" height="30" viewBox="0 0 30 30" fill="none" xmlns="http://www.w3.org/2000/svg">
<path d="M19.9225 6.84956L20.3697 5.95514L19.9225 6.84957L20.0044 6.89049C20.6428 7.20974 21.3844 7.24025 22.0454 6.98034C22.7677 6.6963 23.9395 6.24183 24.7236 5.96866C24.7287 5.9669 24.7327 5.96577 24.7357 5.96505C24.7454 5.9721 24.7657 5.99014 24.7893 6.03028L27.4354 10.5287C27.5676 10.7535 27.5048 11.0422 27.2911 11.1918L25.2826 12.5978C24.6142 13.0656 24.2162 13.8301 24.2162 14.6459V15.0358C24.2162 15.7953 24.5614 16.5136 25.1545 16.988L27.3606 18.7529C27.5547 18.9082 27.6053 19.1826 27.4792 19.3968L24.987 23.6336C24.8648 23.8414 24.6117 23.9324 24.3852 23.85L22.0022 22.9834C21.357 22.7488 20.6438 22.7898 20.0298 23.0968L20.477 23.9913L20.0298 23.0969L19.7765 23.2235C19.0611 23.5812 18.5601 24.2596 18.4286 25.0485L18.0063 27.5822C17.9661 27.8233 17.7575 28 17.5131 28H12.4869C12.2425 28 12.0339 27.8233 11.9937 27.5822L11.5714 25.0485C11.4399 24.2595 10.9389 23.5811 10.2234 23.2234L9.77624 24.1179L10.2234 23.2234L9.9702 23.0968C9.35622 22.7898 8.64301 22.7488 7.99788 22.9834L5.61484 23.85C5.38829 23.9323 5.13522 23.8413 5.013 23.6336L2.52996 19.4124C2.40259 19.1959 2.45566 18.9184 2.65396 18.7642L4.44026 17.3749C5.04922 16.9012 5.40541 16.173 5.40541 15.4015V14.5985C5.40541 13.827 5.04922 13.0987 4.44026 12.6251L2.65396 11.2357L2.04744 12.0156L2.65396 11.2357C2.45566 11.0815 2.40259 10.8041 2.52996 10.5876L5.21074 6.03024C5.23434 5.9901 5.25459 5.97206 5.2643 5.96501C5.26733 5.96573 5.27134 5.96686 5.27638 5.96862C6.00507 6.2225 7.06977 6.6334 7.79803 6.91886C8.60589 7.23552 9.52248 7.11491 10.2204 6.59147L10.5889 6.31505C11.0931 5.93692 11.4358 5.38233 11.5486 4.76229L11.9761 2.41056C12.0194 2.17281 12.2264 2 12.4681 2H17.5319C17.775 2 17.9785 2.1726 18.0199 2.40589L19.0045 2.23128L18.0199 2.40589C18.1532 3.15767 18.3172 4.09802 18.4273 4.78232C18.5648 5.63691 19.1052 6.44089 19.9225 6.84956Z" fill="#D9D9D9" stroke="#4B4B4B" stroke-width="2"/>
<ellipse cx="15" cy="14.9999" rx="3" ry="3.03604" fill="white" stroke="#4B4B4B" stroke-width="2"/>
</svg>
