<svg width="50" height="59" viewBox="0 0 50 59" fill="none" xmlns="http://www.w3.org/2000/svg">
<rect x="1.00012" y="9.71484" width="47.9999" height="47.9999" rx="4" fill="white" stroke="#4B4B4B" stroke-width="2"/>
<path d="M23.0381 2.68741C23.1166 2.51981 23.1847 2.38063 23.2417 2.27065C23.435 2.27161 23.7177 2.30118 24.0875 2.36929C24.8979 2.51856 25.9494 2.81878 27.0042 3.18496C28.0567 3.55032 29.0713 3.96699 29.8066 4.33477C30.1025 4.48274 30.3322 4.6125 30.4944 4.7179C30.4794 4.81521 30.4612 4.92762 30.44 5.0542C30.3704 5.46795 30.2697 6.01905 30.1425 6.66131C29.8881 7.94642 29.5309 9.58213 29.1113 11.1967C28.6897 12.8194 28.214 14.3858 27.7277 15.5493C27.4827 16.1353 27.2531 16.5748 27.0511 16.8597C26.9535 16.9974 26.887 17.0644 26.8545 17.0937C26.4603 17.1334 25.8173 17.1076 25.0084 16.9967C24.1597 16.8804 23.2006 16.6808 22.2874 16.4196C21.3681 16.1566 20.5324 15.8417 19.9128 15.5074C19.603 15.3402 19.3748 15.1829 19.2224 15.0451C19.0733 14.9104 19.0438 14.8372 19.0434 14.8373C19.0434 14.8373 19.0435 14.8376 19.0437 14.8383C19.0443 14.8402 19.0442 14.8383 19.0437 14.8321C19.0408 14.7963 19.0266 14.6188 19.0819 14.2212C19.1397 13.8055 19.2541 13.2717 19.4172 12.646C19.7426 11.398 20.2398 9.86738 20.7831 8.34351C21.3254 6.82279 21.9072 5.32695 22.3964 4.15381C22.6413 3.56671 22.8605 3.06651 23.0381 2.68741Z" fill="white" stroke="#4B4B4B" stroke-width="2"/>
<path d="M13 38.153V35.8336C13 35.2813 13.4477 34.8336 14 34.8336H15.113C15.113 34.8336 14.1548 25.0593 15.113 23.8498C16.0409 22.6787 23.2095 23.0506 23.6626 23.0754C23.6777 23.0762 23.6898 23.0767 23.705 23.0769C24.174 23.0829 32.7584 23.2041 33.4001 23.956C34.0598 24.7291 33.4001 34.8336 33.4001 34.8336H34.8148C35.3671 34.8336 35.8148 35.2813 35.8148 35.8336V38.1541C35.8148 38.6787 35.4094 39.1142 34.8861 39.1515L28.0097 39.6427C27.4159 39.6851 26.9891 40.2311 27.09 40.8178C27.4558 42.9434 28.1965 47.5047 27.9969 48.4891C27.7346 49.783 26.3086 51 24.4844 51C22.6602 51 21.5556 49.783 20.972 48.4891C20.5308 47.5109 21.3852 43.0012 21.8284 40.8586C21.9525 40.2589 21.5212 39.6835 20.9103 39.6406L13.93 39.1505C13.4061 39.1137 13 38.6781 13 38.153Z" fill="white"/>
<path d="M15.113 34.8336H14C13.4477 34.8336 13 35.2813 13 35.8336V38.153C13 38.6781 13.4061 39.1137 13.93 39.1505L20.9103 39.6406C21.5212 39.6835 21.9525 40.2589 21.8284 40.8586C21.3852 43.0012 20.5308 47.5109 20.972 48.4891C21.5556 49.783 22.6602 51 24.4844 51C26.3086 51 27.7346 49.783 27.9969 48.4891C28.1965 47.5047 27.4558 42.9434 27.09 40.8178C26.9891 40.2311 27.4159 39.6851 28.0097 39.6427L34.8861 39.1515C35.4094 39.1142 35.8148 38.6787 35.8148 38.1541V35.8336C35.8148 35.2813 35.3671 34.8336 34.8148 34.8336H33.4001M15.113 34.8336C15.113 34.8336 14.1548 25.0593 15.113 23.8498C16.0409 22.6787 23.2095 23.0506 23.6626 23.0754C23.6777 23.0762 23.6898 23.0767 23.705 23.0769C24.174 23.0829 32.7584 23.2041 33.4001 23.956C34.0598 24.7291 33.4001 34.8336 33.4001 34.8336M15.113 34.8336H19.2402H23.685H28.5983H33.4001" stroke="#4B4B4B" stroke-width="2"/>
<path d="M19.8925 27.6655C19.8925 27.2513 19.5567 26.9155 19.1425 26.9155C18.7282 26.9155 18.3925 27.2513 18.3925 27.6655H19.8925ZM18.3925 27.6655V34.6231H19.8925V27.6655H18.3925Z" fill="#4B4B4B"/>
<path d="M31.2999 27.6655C31.2999 27.2513 30.9641 26.9155 30.5499 26.9155C30.1357 26.9155 29.7999 27.2513 29.7999 27.6655H31.2999ZM29.7999 27.6655V34.6231H31.2999V27.6655H29.7999Z" fill="#4B4B4B"/>
<path d="M26.9126 32.3042C26.9126 31.89 26.5768 31.5542 26.1626 31.5542C25.7484 31.5542 25.4126 31.89 25.4126 32.3042H26.9126ZM25.4126 32.3042V34.6234H26.9126V32.3042H25.4126Z" fill="#4B4B4B"/>
<path d="M24.2799 30.7578C24.2799 30.3436 23.9441 30.0078 23.5299 30.0078C23.1157 30.0078 22.7799 30.3436 22.7799 30.7578H24.2799ZM22.7799 30.7578V34.6231H24.2799V30.7578H22.7799Z" fill="#4B4B4B"/>
<ellipse cx="24.4074" cy="47.6905" rx="1.42593" ry="1.25545" fill="#4B4B4B"/>
</svg>
