<svg width="30" height="30" viewBox="0 0 30 30" fill="none" xmlns="http://www.w3.org/2000/svg">
<g clip-path="url(#clip0_235_518)">
<path d="M7.1086 19.4436L5.15473 17.4898L2.33248 14.6675L6.01232 10.9877C7.09463 9.90537 7.74528 10.1231 8.17948 10.5573C8.61367 10.9915 7.74846 12.2909 9.91815 13.5947C12.0878 14.8986 14.4683 12.0839 13.3815 10.1314C12.2948 8.17876 11.6454 8.82814 10.5605 8.17622C9.69267 7.65468 10.0529 6.94707 10.3415 6.65845L14.4543 2.54569L19.0133 7.1047C19.4475 7.53889 20.4454 8.01727 20.9634 6.45722C21.6109 4.50717 22.9109 4.07551 23.3445 4.07615C23.778 4.07678 25.0787 4.07869 25.73 4.72998C26.3813 5.38127 26.599 6.03192 26.3838 7.11549C26.1686 8.19907 25.3034 9.49847 24.0027 9.49657C22.7021 9.49466 22.4869 10.5782 22.704 10.7953L23.5723 11.6637L27.9143 16.0056L23.585 20.3349C23.0795 20.5509 22.0682 20.7228 22.0666 19.6823C22.0651 18.6418 21.4858 17.8027 21.1963 17.5133C20.6174 16.9343 19.07 16.1661 17.5114 17.7246C15.5633 19.6728 17.083 21.1925 17.3 21.4096C17.5171 21.6266 17.7343 21.8437 19.4691 22.2798C20.857 22.6287 20.1938 23.7261 19.6888 24.2312L15.7924 28.1275L12.3189 24.6539C11.5948 23.6412 10.0172 22.0059 9.49919 23.5659L9.49918 23.5659C8.85171 25.516 8.63588 26.166 7.33585 26.5976C6.29582 26.943 5.02312 26.3052 4.51677 25.9432C4.08258 25.509 3.34382 24.3373 3.86231 23.1241C4.51043 21.6076 5.594 21.3924 6.89404 20.9608C7.93407 20.6154 7.47042 19.8055 7.1086 19.4436Z" fill="white" stroke="#4B4B4B" stroke-width="2"/>
</g>
<defs>
<clipPath id="clip0_235_518">
<rect width="30" height="30" fill="white"/>
</clipPath>
</defs>
</svg>
