<svg width="30" height="30" fill="none" xmlns="http://www.w3.org/2000/svg"><path d="M19.256 23.282c0 1.934-1.834 3.718-4.378 3.718-2.545 0-4.378-1.784-4.378-3.718 0-1.935 1.833-3.718 4.378-3.718 2.544 0 4.378 1.783 4.378 3.718z" fill="#fff" stroke="#4B4B4B" stroke-width="2"/><path d="M15.133 2C11.012 2 6.07 3.24 6.016 16.257c0 .14-.03.284-.087.412l-1.653 3.71c-.167.373-.083.814.287.987 3.36 1.577 17 1.583 20.758.018.426-.178.532-.678.324-1.09l-1.79-3.544a1.036 1.036 0 0 1-.1-.587C25.263 3.849 19.244 2 15.134 2z" fill="#fff" stroke="#4B4B4B" stroke-width="2"/></svg>