<svg width="30" height="30" fill="none" xmlns="http://www.w3.org/2000/svg"><path d="m5.197 17.294-.614-.79.614.79a2.5 2.5 0 0 0 .965-1.974v-.64a2.5 2.5 0 0 0-.965-1.974l-1.543-1.2a.5.5 0 0 1-.124-.648L5.94 6.76a.218.218 0 0 1 .051-.063l.011.003c.655.23 1.573.584 2.229.84a2.51 2.51 0 0 0 2.422-.327l.26-.195a2.5 2.5 0 0 0 .96-1.553l.373-2.054A.5.5 0 0 1 12.738 3h4.524c.242 0 .446.173.488.406.117.665.257 1.467.354 2.07l.988-.16-.988.16c.137.844.672 1.638 1.479 2.042a2.481 2.481 0 0 0 2.018.089 80.849 80.849 0 0 1 2.408-.91c.01.008.028.025.05.063l2.376 4.039a.5.5 0 0 1-.144.663l-1.738 1.217a2.5 2.5 0 0 0-1.067 2.048v.255a2.5 2.5 0 0 0 .939 1.952l1.936 1.549a.5.5 0 0 1 .118.644l-2.222 3.777a.5.5 0 0 1-.602.216l-2.085-.758a2.5 2.5 0 0 0-1.973.113l-.145.073.447.894-.447-.894a2.5 2.5 0 0 0-1.348 1.825l-.368 2.21a.5.5 0 0 1-.493.417h-4.486a.5.5 0 0 1-.493-.418l-.368-2.21a2.5 2.5 0 0 0-1.348-1.824l-.145-.073a2.5 2.5 0 0 0-1.973-.113l-2.085.758a.5.5 0 0 1-.602-.216L3.53 19.142a.5.5 0 0 1 .124-.648l1.543-1.2z" fill="#fff" stroke="#4B4B4B" stroke-width="2"/><ellipse cx="15" cy="15" rx="2.786" ry="2.819" fill="#FDF5EF" stroke="#4B4B4B" stroke-width="2"/></svg>