<svg width="30" height="30" fill="none" xmlns="http://www.w3.org/2000/svg"><rect x="4" y="4.804" width="22" height="23" rx="2" fill="#fff" stroke="#4B4B4B" stroke-width="2"/><path fill="#fff" stroke="#4B4B4B" stroke-width="1.174" d="M3.587 10.043h22.826v1.174H3.587z"/><rect x="8.425" y="6.875" width="4.75" height="1.25" rx=".625" transform="rotate(-90 8.425 6.875)" fill="#4B4B4B" stroke="#4B4B4B" stroke-width="1.25"/><rect x="20.425" y="6.875" width="4.75" height="1.25" rx=".625" transform="rotate(-90 20.425 6.875)" fill="#4B4B4B" stroke="#4B4B4B" stroke-width="1.25"/><path d="m18.419 19.863.792.61-.792-.61a2 2 0 0 0-.414 1.274l.07 2.552-2.405-.855a2 2 0 0 0-1.34 0l-2.405.855.07-2.552a2 2 0 0 0-.414-1.274l-1.556-2.023 2.448-.722a2 2 0 0 0 1.084-.787L15 14.226l1.443 2.105a2 2 0 0 0 1.084.787l2.448.722-1.556 2.023z" fill="#fff" stroke="#4B4B4B" stroke-width="2"/></svg>