<svg width="30" height="30" fill="none" xmlns="http://www.w3.org/2000/svg"><path d="M3.873 12.3 1 9.187m2.873 11.41L1 22.67m3.112-6.413H1" stroke="#4B4B4B" stroke-width="2" stroke-linecap="round"/><path d="M12.148 16.414c0 1.625.328 3.146 1.095 4.234.726 1.03 1.926 1.79 3.986 1.79a56.416 56.416 0 0 1 1.932.045c.672.022 1.357.043 2.047.043 1.388 0 2.731-.09 3.904-.414 1.162-.32 2.102-.854 2.762-1.709.66-.854 1.126-2.142 1.126-4.134 0-1.827-.457-3.016-1.11-3.816-.658-.809-1.604-1.331-2.778-1.654-1.18-.326-2.53-.433-3.917-.452a56.21 56.21 0 0 0-2.36.026c-.555.013-1.1.025-1.606.025-2.06 0-3.26.758-3.987 1.787-.766 1.085-1.094 2.604-1.094 4.23z" fill="#fff" stroke="#4B4B4B" stroke-width="2"/><path d="M7.187 15.41c0 1.604.451 3.012 1.13 3.992.68.984 1.523 1.458 2.335 1.458s1.654-.474 2.335-1.458c.678-.98 1.13-2.388 1.13-3.991 0-1.603-.452-3.011-1.13-3.991-.681-.984-1.523-1.459-2.335-1.459s-1.654.475-2.335 1.459c-.679.98-1.13 2.388-1.13 3.99z" fill="#fff" stroke="#4B4B4B" stroke-width="2"/><path d="M11.44 24.522c-.743-5.98-.346-12.97.067-17.6.125-1.405 1.642-2.212 2.891-1.556l6.966 3.656a2 2 0 0 1 1.07 1.771v10.886a2 2 0 0 1-1.34 1.888l-7.102 2.485c-1.156.405-2.4-.315-2.552-1.53z" fill="#fff" stroke="#4B4B4B" stroke-width="2" stroke-linecap="round"/></svg>