<svg width="30" height="30" viewBox="0 0 30 30" fill="none" xmlns="http://www.w3.org/2000/svg">
<g clip-path="url(#clip0_235_567)">
<path d="M16.027 3.17608L18.3724 6.59833C18.8925 7.35725 19.6584 7.91367 20.5409 8.17382L24.5204 9.34691C25.8683 9.74424 26.3969 11.3712 25.54 12.4849L23.01 15.7731C22.449 16.5022 22.1565 17.4026 22.1818 18.3223L22.2958 22.4695C22.3345 23.8742 20.9505 24.8797 19.6265 24.4089L15.7175 23.0188C14.8506 22.7106 13.9039 22.7106 13.0371 23.0188L9.12804 24.4089C7.80402 24.8797 6.42007 23.8742 6.4587 22.4695L6.57277 18.3223C6.59806 17.4026 6.30553 16.5022 5.74448 15.7731L3.21451 12.4849C2.35758 11.3712 2.88621 9.74424 4.2341 9.34691L8.21363 8.17382C9.09613 7.91367 9.86198 7.35725 10.3821 6.59833L12.7275 3.17608C13.5219 2.01694 15.2326 2.01694 16.027 3.17608Z" fill="white" stroke="#4B4B4B" stroke-width="2" stroke-linejoin="round"/>
<path d="M22.3113 14.9451L23.6147 16.8469C24.0048 17.4161 24.5792 17.8334 25.241 18.0285L27.4525 18.6804C28.1264 18.8791 28.3907 19.6925 27.9623 20.2494L26.5564 22.0766C26.1356 22.6235 25.9162 23.2987 25.9351 23.9885L25.9985 26.2931C26.0178 26.9955 25.3259 27.4982 24.6639 27.2628L22.4916 26.4904C21.8415 26.2592 21.1315 26.2592 20.4813 26.4904L18.3091 27.2628C17.6471 27.4982 16.9551 26.9955 16.9744 26.2931L17.0378 23.9885C17.0568 23.2987 16.8374 22.6235 16.4166 22.0766L15.0107 20.2494C14.5822 19.6925 14.8465 18.8791 15.5205 18.6804L17.7319 18.0285C18.3938 17.8334 18.9682 17.4161 19.3583 16.8469L20.6616 14.9451C21.0588 14.3656 21.9141 14.3656 22.3113 14.9451Z" fill="white" stroke="#4B4B4B" stroke-width="2" stroke-linejoin="round"/>
</g>
<defs>
<clipPath id="clip0_235_567">
<rect width="30" height="30" fill="white"/>
</clipPath>
</defs>
</svg>
