<svg width="30" height="30" viewBox="0 0 30 30" fill="none" xmlns="http://www.w3.org/2000/svg">
<path d="M26.1275 12.2995L29 9.1875" stroke="#4B4B4B" stroke-width="2" stroke-linecap="round"/>
<path d="M26.1274 20.5967L28.9999 22.6714" stroke="#4B4B4B" stroke-width="2" stroke-linecap="round"/>
<path d="M25.8879 16.2573H28.9998" stroke="#4B4B4B" stroke-width="2" stroke-linecap="round"/>
<path d="M17.8522 16.4141C17.8522 18.0387 17.5243 19.56 16.7574 20.648C16.031 21.6786 14.8307 22.4375 12.7708 22.4375C12.1954 22.4375 11.5742 22.4581 10.9456 22.479C10.9101 22.4801 10.8745 22.4813 10.839 22.4825C10.1674 22.5047 9.48207 22.5262 8.79213 22.5259C7.40437 22.5253 6.06079 22.4352 4.88782 22.1119C3.7262 21.7918 2.78579 21.2583 2.12575 20.4034C1.46599 19.5488 1 18.2611 1 16.2686C1 14.4419 1.45753 13.2533 2.10958 12.4527C2.76799 11.6443 3.71384 11.122 4.88782 10.7985C6.06846 10.4731 7.41847 10.3659 8.80529 10.347C9.49479 10.3376 10.1803 10.35 10.8494 10.3652C10.9549 10.3676 11.0602 10.37 11.1652 10.3725C11.7196 10.3855 12.2643 10.3982 12.7708 10.3982C14.8316 10.3982 16.0317 11.1559 16.7578 12.1845C17.5243 13.2705 17.8522 14.7895 17.8522 16.4141Z" fill="white" stroke="#4B4B4B" stroke-width="2"/>
<path d="M22.8133 15.4108C22.8133 17.0141 22.3618 18.4222 21.6834 19.4021C21.0023 20.3859 20.1604 20.8603 19.3483 20.8603C18.5363 20.8603 17.6944 20.3859 17.0133 19.4021C16.3349 18.4222 15.8834 17.0141 15.8834 15.4108C15.8834 13.8076 16.3349 12.3995 17.0133 11.4196C17.6944 10.4358 18.5363 9.96143 19.3483 9.96143C20.1604 9.96143 21.0023 10.4358 21.6834 11.4196C22.3618 12.3995 22.8133 13.8076 22.8133 15.4108Z" fill="white" stroke="#4B4B4B" stroke-width="2"/>
<path d="M18.5594 24.5219C19.3027 18.5428 18.906 11.5517 18.4934 6.92213C18.3681 5.51676 16.8511 4.71028 15.6018 5.36602L8.63624 9.02209C7.97803 9.36757 7.56573 10.0496 7.56573 10.793V21.6793C7.56573 22.5292 8.10293 23.2863 8.90517 23.5671L16.008 26.0525C17.1636 26.4568 18.4084 25.7368 18.5594 24.5219Z" fill="white" stroke="#4B4B4B" stroke-width="2" stroke-linecap="round"/>
</svg>
