<svg width="30" height="30" viewBox="0 0 30 30" fill="none" xmlns="http://www.w3.org/2000/svg">
<path d="M4.70212 2H23.9704C26.6418 2 26.6418 5.20567 26.6418 7.87707V26.7845C26.6418 27.2794 26.2875 27.6948 25.7941 27.7328C21.8004 28.0406 9.13894 28.126 6.72584 27.7547C6.46374 27.7144 6.33924 27.4964 6.33924 27.2312V7.87707H4.61632C4.3511 7.87707 4.09264 7.77505 3.92183 7.57216C2.6951 6.11504 2.69272 4.27515 3.91472 2.4092C4.08716 2.14588 4.38737 2 4.70212 2Z" fill="white"/>
<path d="M23.9704 2H4.70212C4.38737 2 4.08716 2.14588 3.91472 2.4092C2.69272 4.27515 2.6951 6.11504 3.92183 7.57216C4.09264 7.77505 4.3511 7.87707 4.61632 7.87707H6.33924M23.9704 2C26.6418 2 26.6418 5.20567 26.6418 7.87707V26.7845C26.6418 27.2794 26.2875 27.6948 25.7941 27.7328C21.8004 28.0406 9.13894 28.126 6.72584 27.7547C6.46374 27.7144 6.33924 27.4964 6.33924 27.2312V7.87707M23.9704 2C22.1035 2 22.3241 4.87034 22.6263 6.59912C22.7398 7.24865 22.252 7.87707 21.5926 7.87707H6.33924" stroke="#4B4B4B" stroke-width="2" stroke-linecap="round"/>
<path d="M10.6135 12.1514H22.3677" stroke="#4B4B4B" stroke-width="2" stroke-linecap="round"/>
<path d="M10.6135 17.4946H22.3677" stroke="#4B4B4B" stroke-width="2" stroke-linecap="round"/>
<path d="M10.6135 22.8364L22.3677 22.8364" stroke="#4B4B4B" stroke-width="2" stroke-linecap="round"/>
</svg>
