<svg width="30" height="30" fill="none" xmlns="http://www.w3.org/2000/svg"><g clip-path="url(#a)"><path d="m20.938 24.613 4.542 2.086-5.01-15.149-6.383 2.623 4.875 14.74 1.976-4.3z" fill="#fff"/><path d="m20.334 11.14.135.41m0 0 5.01 15.15-4.54-2.087-1.977 4.3-4.875-14.74 6.382-2.623z" stroke="#4B4B4B" stroke-width="2" stroke-linecap="round" stroke-linejoin="round"/><path d="m8.547 24.613-4.541 2.086 5.01-15.149 6.382 2.623-4.875 14.74-1.976-4.3z" fill="#fff"/><path d="m9.152 11.14-.136.41m0 0L4.006 26.7l4.541-2.087 1.976 4.3 4.875-14.74-6.382-2.623z" stroke="#4B4B4B" stroke-width="2" stroke-linecap="round" stroke-linejoin="round"/><path d="M22.885 10.583a8.583 8.583 0 1 1-17.166 0 8.583 8.583 0 0 1 17.166 0z" fill="#fff" stroke="#4B4B4B" stroke-width="2"/><circle cx="14.369" cy="10.65" r="4.361" fill="#fff" stroke="#4B4B4B" stroke-width="2"/></g><defs><clipPath id="a"><path fill="#fff" d="M0 0h30v30H0z"/></clipPath></defs></svg>