<svg width="243" height="64" viewBox="0 0 243 64" fill="none" xmlns="http://www.w3.org/2000/svg">
<rect x="1" y="9.73291" width="241" height="53" rx="4" fill="white" stroke="#4B4B4B" stroke-width="2"/>
<path d="M13.9223 5.51072C13.8792 5.29799 13.8469 5.12191 13.8252 4.98445C13.9774 4.86928 14.2213 4.72265 14.5629 4.5548C15.2998 4.19275 16.3221 3.81341 17.3886 3.48826C18.4526 3.16388 19.5166 2.90681 20.3265 2.77706C20.6563 2.72422 20.9194 2.69658 21.1114 2.68925C21.1631 2.79052 21.2233 2.91094 21.2912 3.04922C21.4872 3.44847 21.7416 3.98463 22.0301 4.61502C22.6072 5.87631 23.3151 7.50223 23.9602 9.14821C24.6082 10.8016 25.1803 12.4437 25.4989 13.7475C25.6593 14.4039 25.7441 14.9301 25.7555 15.3088C25.7608 15.4845 25.7491 15.5977 25.7361 15.6616C25.4473 15.9325 24.9192 16.2992 24.2041 16.6946C23.4553 17.1087 22.5675 17.5183 21.6794 17.8473C20.7849 18.1785 19.9279 18.4138 19.2335 18.5018C18.8865 18.5458 18.6116 18.5488 18.4092 18.5233C18.2281 18.5006 18.1541 18.4613 18.1378 18.4515C18.1311 18.4443 18.0964 18.4086 18.0363 18.3226C17.9611 18.2151 17.8704 18.0641 17.766 17.8652C17.5571 17.4672 17.3228 16.9341 17.0729 16.2948C16.5741 15.0195 16.0421 13.3975 15.5519 11.7554C15.0626 10.1162 14.6201 8.47445 14.2994 7.16631C14.139 6.51171 14.0106 5.94672 13.9223 5.51072ZM25.7252 15.703C25.7252 15.703 25.7256 15.7019 25.7264 15.6999C25.7257 15.702 25.7253 15.703 25.7252 15.703Z" fill="white" stroke="#4B4B4B" stroke-width="2"/>
<path d="M218.163 4.00193C218.228 3.86327 218.286 3.74574 218.335 3.64978C218.501 3.65438 218.737 3.68064 219.043 3.73692C219.777 3.87244 220.733 4.14747 221.695 4.48485C222.654 4.82138 223.576 5.20518 224.243 5.5433C224.485 5.66626 224.676 5.77456 224.816 5.86402C224.803 5.9445 224.788 6.03512 224.77 6.13534C224.703 6.52064 224.606 7.0341 224.484 7.63273C224.241 8.83053 223.9 10.3552 223.502 11.8601C223.102 13.373 222.654 14.8318 222.199 15.9145C221.97 16.4602 221.758 16.8667 221.573 17.1285C221.5 17.2325 221.447 17.2911 221.416 17.3218C221.064 17.3548 220.495 17.3324 219.776 17.2343C219.003 17.1289 218.13 16.9466 217.3 16.7071C216.463 16.4657 215.707 16.1771 215.151 15.8722C214.873 15.7197 214.672 15.5781 214.541 15.4572C214.448 15.3713 214.414 15.3177 214.404 15.3004C214.403 15.2983 214.403 15.2953 214.403 15.2911C214.401 15.2477 214.395 15.0868 214.444 14.7496C214.5 14.3646 214.609 13.8687 214.764 13.2859C215.072 12.1237 215.54 10.6971 216.05 9.27585C216.56 7.8577 217.106 6.46265 217.564 5.36864C217.793 4.82111 217.998 4.35495 218.163 4.00193Z" fill="white" stroke="#4B4B4B" stroke-width="2"/>
</svg>
