<svg width="100" height="100" viewBox="0 0 100 100" fill="none" xmlns="http://www.w3.org/2000/svg">
<g clip-path="url(#clip0_270_8)">
<path d="M63.3807 75.3654L57.2412 81.5049L48.3731 90.3731L36.8102 78.8102C33.4093 75.4093 34.0935 73.3648 35.4578 72.0005C36.8221 70.6362 40.9051 73.3549 45.0021 66.5372C49.0991 59.7195 40.2549 52.2397 34.1194 55.6545C27.9839 59.0693 30.0244 61.1098 27.9759 64.5186C26.3372 67.2457 24.1137 66.1137 23.2068 65.2068L10.2836 52.2836L24.609 37.9581C25.9733 36.5938 27.4765 33.4582 22.5745 31.8306C16.447 29.7961 15.0906 25.7111 15.0926 24.3487C15.0946 22.9864 15.1006 18.8994 17.1471 16.8529C19.1936 14.8064 21.2381 14.1223 24.6429 14.7984C28.0478 15.4746 32.1308 18.1933 32.1248 22.2803C32.1188 26.3673 35.5236 27.0435 36.2058 26.3613L38.9345 23.6327L52.5777 9.98937L66.1811 23.5928C66.86 25.1812 67.4003 28.3591 64.1307 28.3639C60.8611 28.3687 58.2245 30.189 57.315 31.0986C55.4959 32.9177 53.082 37.7802 57.9792 42.6774C64.1007 48.7989 68.8759 44.0238 69.558 43.3416C70.2402 42.6595 70.9223 41.9772 72.2926 36.5259C73.3889 32.1649 76.8371 34.2487 78.4241 35.8358L90.6672 48.0789L79.7526 58.9935C76.5705 61.2687 71.4318 66.226 76.3338 67.8537L76.3339 67.8537C82.4613 69.8882 84.5038 70.5664 85.8602 74.6514C86.9452 77.9194 84.9413 81.9185 83.8037 83.5095C82.4394 84.8739 78.7577 87.1952 74.9455 85.566C70.1804 83.5295 69.5042 80.1246 68.1478 76.0396C67.0628 72.7716 64.5176 74.2285 63.3807 75.3654Z" fill="white" stroke="#4B4B4B" stroke-width="2"/>
</g>
<defs>
<clipPath id="clip0_270_8">
<rect width="100" height="100" fill="white"/>
</clipPath>
</defs>
</svg>
