<svg xmlns="http://www.w3.org/2000/svg" width="36" height="36"><defs><radialGradient id="a" cx="199.788" cy="628.438" r="52.352" fx="199.788" fy="628.438" gradientTransform="matrix(-.42288 .11926 -.08593 -.30467 173.322 184.509)" gradientUnits="userSpaceOnUse"><stop offset="0" style="stop-color:#ff005f;stop-opacity:1"/><stop offset="1" style="stop-color:#fc01d8;stop-opacity:1"/></radialGradient><radialGradient id="b" cx="158.429" cy="578.088" r="52.352" fx="158.429" fy="578.088" gradientTransform="matrix(0 -.5489 .58237 0 -327.101 125.734)" gradientUnits="userSpaceOnUse"><stop offset="0" style="stop-color:#fc0;stop-opacity:1"/><stop offset=".124" style="stop-color:#fc0;stop-opacity:1"/><stop offset=".567" style="stop-color:#fe4a05;stop-opacity:1"/><stop offset=".694" style="stop-color:#ff0f3f;stop-opacity:1"/><stop offset="1" style="stop-color:#fe0657;stop-opacity:0"/></radialGradient><radialGradient id="c" cx="172.615" cy="600.692" r="65" fx="172.615" fy="600.692" gradientTransform="matrix(.09176 -.1581 .20584 .11947 -120.577 -8.977)" gradientUnits="userSpaceOnUse"><stop offset="0" style="stop-color:#fc0;stop-opacity:1"/><stop offset="1" style="stop-color:#fc0;stop-opacity:0"/></radialGradient><radialGradient id="d" cx="144.012" cy="51.337" r="67.081" fx="144.012" fy="51.337" gradientTransform="matrix(-.3264 .09191 -.0313 -.11121 53.498 -6.06)" gradientUnits="userSpaceOnUse"><stop offset="0" style="stop-color:#780cff;stop-opacity:1"/><stop offset="1" style="stop-color:#820bff;stop-opacity:0"/></radialGradient></defs><path d="M18.008 0c-7.516 0-9.715.008-10.14.043-1.544.129-2.505.371-3.548.89A7.2 7.2 0 0 0 2.25 2.45C1.11 3.637.418 5.094.168 6.83.043 7.667.008 7.843 0 12.14v5.851c0 7.512.008 9.707.047 10.133.125 1.504.355 2.445.86 3.48a7.59 7.59 0 0 0 4.91 4.016c.742.191 1.562.297 2.613.348.449.015 4.992.031 9.539.031s9.09-.008 9.527-.027c1.219-.059 1.926-.153 2.707-.356a7.53 7.53 0 0 0 4.914-4.023c.488-1.008.735-1.989.848-3.41.027-.313.035-5.258.035-10.196 0-4.941-.012-9.875-.035-10.187-.113-1.442-.36-2.414-.867-3.446a7.2 7.2 0 0 0-1.543-2.113C32.367 1.11 30.91.418 29.175.164 28.333.043 28.169.008 23.864 0Zm0 0" style="stroke:none;fill-rule:nonzero;fill:url(#a)"/><path d="M18.008 0c-7.516 0-9.715.008-10.14.043-1.544.129-2.505.371-3.548.89A7.2 7.2 0 0 0 2.25 2.45C1.11 3.637.418 5.094.168 6.83.043 7.667.008 7.843 0 12.14v5.851c0 7.512.008 9.707.047 10.133.125 1.504.355 2.445.86 3.48a7.59 7.59 0 0 0 4.91 4.016c.742.191 1.562.297 2.613.348.449.015 4.992.031 9.539.031s9.09-.008 9.527-.027c1.219-.059 1.926-.153 2.707-.356a7.53 7.53 0 0 0 4.914-4.023c.488-1.008.735-1.989.848-3.41.027-.313.035-5.258.035-10.196 0-4.941-.012-9.875-.035-10.187-.113-1.442-.36-2.414-.867-3.446a7.2 7.2 0 0 0-1.543-2.113C32.367 1.11 30.91.418 29.175.164 28.333.043 28.169.008 23.864 0Zm0 0" style="stroke:none;fill-rule:nonzero;fill:url(#b)"/><path d="M18.008 0c-7.516 0-9.715.008-10.14.043-1.544.129-2.505.371-3.548.89A7.2 7.2 0 0 0 2.25 2.45C1.11 3.637.418 5.094.168 6.83.043 7.667.008 7.843 0 12.14v5.851c0 7.512.008 9.707.047 10.133.125 1.504.355 2.445.86 3.48a7.59 7.59 0 0 0 4.91 4.016c.742.191 1.562.297 2.613.348.449.015 4.992.031 9.539.031s9.09-.008 9.527-.027c1.219-.059 1.926-.153 2.707-.356a7.53 7.53 0 0 0 4.914-4.023c.488-1.008.735-1.989.848-3.41.027-.313.035-5.258.035-10.196 0-4.941-.012-9.875-.035-10.187-.113-1.442-.36-2.414-.867-3.446a7.2 7.2 0 0 0-1.543-2.113C32.367 1.11 30.91.418 29.175.164 28.333.043 28.169.008 23.864 0Zm0 0" style="stroke:none;fill-rule:nonzero;fill:url(#c)"/><path d="M18.008 0c-7.516 0-9.715.008-10.14.043-1.544.129-2.505.371-3.548.89A7.2 7.2 0 0 0 2.25 2.45C1.11 3.637.418 5.094.168 6.83.043 7.667.008 7.843 0 12.14v5.851c0 7.512.008 9.707.047 10.133.125 1.504.355 2.445.86 3.48a7.59 7.59 0 0 0 4.91 4.016c.742.191 1.562.297 2.613.348.449.015 4.992.031 9.539.031s9.09-.008 9.527-.027c1.219-.059 1.926-.153 2.707-.356a7.53 7.53 0 0 0 4.914-4.023c.488-1.008.735-1.989.848-3.41.027-.313.035-5.258.035-10.196 0-4.941-.012-9.875-.035-10.187-.113-1.442-.36-2.414-.867-3.446a7.2 7.2 0 0 0-1.543-2.113C32.367 1.11 30.91.418 29.175.164 28.333.043 28.169.008 23.864 0Zm0 0" style="stroke:none;fill-rule:nonzero;fill:url(#d)"/><path d="M18.008 4.621c-3.637 0-4.09.016-5.52.082-1.425.067-2.398.293-3.25.621a6.6 6.6 0 0 0-2.37 1.543 6.5 6.5 0 0 0-1.544 2.371c-.332.848-.558 1.82-.62 3.246-.067 1.426-.083 1.88-.083 5.512 0 3.633.016 4.09.082 5.516.063 1.422.29 2.394.621 3.246.336.89.864 1.699 1.543 2.37a6.6 6.6 0 0 0 2.371 1.544c.852.328 1.825.555 3.246.621 1.434.062 1.887.082 5.524.082 3.633 0 4.09-.02 5.515-.082 1.426-.066 2.399-.29 3.25-.621a6.6 6.6 0 0 0 2.372-1.547 6.6 6.6 0 0 0 1.543-2.367c.328-.852.554-1.824.62-3.246.067-1.43.083-1.883.083-5.516s-.016-4.086-.082-5.512c-.067-1.425-.293-2.398-.622-3.246a6.56 6.56 0 0 0-1.542-2.37 6.56 6.56 0 0 0-2.372-1.544c-.855-.328-1.828-.554-3.25-.62-1.43-.067-1.882-.083-5.52-.083Zm-1.2 2.41h1.2c3.57 0 3.996.016 5.41.078 1.305.059 2.012.282 2.484.461.621.242 1.07.532 1.535 1 .446.43.79.957 1.004 1.535.18.473.403 1.184.461 2.485.063 1.41.078 1.836.078 5.402 0 3.574-.015 3.996-.078 5.403-.058 1.304-.277 2.015-.46 2.488a4.2 4.2 0 0 1-1 1.535 4.15 4.15 0 0 1-1.54 1c-.472.184-1.18.402-2.484.46-1.414.063-1.84.079-5.41.079-3.574 0-3.996-.016-5.41-.078-1.305-.063-2.012-.277-2.485-.461a4.15 4.15 0 0 1-1.539-1 4.15 4.15 0 0 1-1-1.54c-.183-.468-.402-1.179-.465-2.483-.062-1.407-.074-1.832-.074-5.403s.012-3.996.074-5.402c.063-1.305.282-2.012.465-2.485a4.1 4.1 0 0 1 1-1.539 4.1 4.1 0 0 1 1.54-1c.472-.183 1.179-.402 2.484-.46 1.234-.06 1.714-.075 4.21-.079Zm8.344 2.223a1.605 1.605 0 1 0 0 3.21c.887 0 1.61-.718 1.61-1.605 0-.886-.723-1.605-1.61-1.605m-7.144 1.875a6.87 6.87 0 0 0-6.875 6.867 6.87 6.87 0 0 0 6.875 6.867 6.868 6.868 0 1 0 0-13.734m0 2.41a4.458 4.458 0 0 1 3.945 6.715 4.47 4.47 0 0 1-3.945 2.203 4.46 4.46 0 0 1 0-8.918m0 0" style="stroke:none;fill-rule:nonzero;fill:#fff;fill-opacity:1"/></svg>